HIERARCHY
ROOT Hips
{
	OFFSET 0.00000 0.00000 0.00000
	CHANNELS 6 Xposition Yposition Zposition Zrotation Yrotation Xrotation 
	JOINT LHipJoint
	{
		OFFSET 0 0 0
		CHANNELS 3 Zrotation Yrotation Xrotation
		JOINT LeftUpLeg
		{
			OFFSET 1.43652 -1.81092 0.91346
			CHANNELS 3 Zrotation Yrotation Xrotation
			JOINT LeftLeg
			{
				OFFSET 2.45984 -6.75837 0.00000
				CHANNELS 3 Zrotation Yrotation Xrotation
				JOINT LeftFoot
				{
					OFFSET 2.63718 -7.24559 0.00000
					CHANNELS 3 Zrotation Yrotation Xrotation
					JOINT LeftToeBase
					{
						OFFSET 0.19690 -0.54098 2.12239
						CHANNELS 3 Zrotation Yrotation Xrotation
						End Site
						{
							OFFSET 0.00000 -0.00000 1.10116
						}
					}
				}
			}
		}
	}
	JOINT RHipJoint
	{
		OFFSET 0 0 0
		CHANNELS 3 Zrotation Yrotation Xrotation
		JOINT RightUpLeg
		{
			OFFSET -1.35116 -1.81092 0.91345
			CHANNELS 3 Zrotation Yrotation Xrotation
			JOINT RightLeg
			{
				OFFSET -2.55576 -7.02189 0.00000
				CHANNELS 3 Zrotation Yrotation Xrotation
				JOINT RightFoot
				{
					OFFSET -2.61938 -7.19669 0.00000
					CHANNELS 3 Zrotation Yrotation Xrotation
					JOINT RightToeBase
					{
						OFFSET -0.32509 -0.89318 2.23646
						CHANNELS 3 Zrotation Yrotation Xrotation
						End Site
						{
							OFFSET -0.00000 -0.00000 1.19625
						}
					}
				}
			}
		}
	}
	JOINT LowerBack
	{
		OFFSET 0 0 0
		CHANNELS 3 Zrotation Yrotation Xrotation
		JOINT Spine
		{
			OFFSET 0.05193 2.08077 -0.11958
			CHANNELS 3 Zrotation Yrotation Xrotation
			JOINT Spine1
			{
				OFFSET 0.04960 2.08447 0.01967
				CHANNELS 3 Zrotation Yrotation Xrotation
				JOINT Neck
				{
					OFFSET 0 0 0
					CHANNELS 3 Zrotation Yrotation Xrotation
					JOINT Neck1
					{
						OFFSET -0.10699 1.82066 0.27584
						CHANNELS 3 Zrotation Yrotation Xrotation
						JOINT Head
						{
							OFFSET 0.14949 1.84747 -0.32279
							CHANNELS 3 Zrotation Yrotation Xrotation
							End Site
							{
								OFFSET 0.04969 1.88916 -0.14562
							}
						}
					}
				}
				JOINT LeftShoulder
				{
					OFFSET 0 0 0
					CHANNELS 3 Zrotation Yrotation Xrotation
					JOINT LeftArm
					{
						OFFSET 3.73629 1.27211 -0.12847
						CHANNELS 3 Zrotation Yrotation Xrotation
						JOINT LeftForeArm
						{
							OFFSET 5.10995 -0.00000 0.00000
							CHANNELS 3 Zrotation Yrotation Xrotation
							JOINT LeftHand
							{
								OFFSET 3.21207 -0.00000 0.00000
								CHANNELS 3 Zrotation Yrotation Xrotation
								JOINT LeftFingerBase
								{
									OFFSET 0 0 0
									CHANNELS 3 Zrotation Yrotation Xrotation
									JOINT LeftHandIndex1
									{
										OFFSET 0.63349 -0.00000 0.00000
										CHANNELS 3 Zrotation Yrotation Xrotation
										End Site
										{
											OFFSET 0.51074 -0.00000 0.00000
										}
									}
								}
								JOINT LThumb
								{
									OFFSET 0 0 0
									CHANNELS 3 Zrotation Yrotation Xrotation
									End Site
									{
										OFFSET 0.51853 -0.00000 0.51853
									}
								}
							}
						}
					}
				}
				JOINT RightShoulder
				{
					OFFSET 0 0 0
					CHANNELS 3 Zrotation Yrotation Xrotation
					JOINT RightArm
					{
						OFFSET -3.70251 1.29541 -0.35354
						CHANNELS 3 Zrotation Yrotation Xrotation
						JOINT RightForeArm
						{
							OFFSET -5.25109 -0.00000 0.00000
							CHANNELS 3 Zrotation Yrotation Xrotation
							JOINT RightHand
							{
								OFFSET -3.28364 -0.00000 0.00000
								CHANNELS 3 Zrotation Yrotation Xrotation
								JOINT RightFingerBase
								{
									OFFSET 0 0 0
									CHANNELS 3 Zrotation Yrotation Xrotation
									JOINT RightHandIndex1
									{
										OFFSET -0.59974 -0.00000 0.00000
										CHANNELS 3 Zrotation Yrotation Xrotation
										End Site
										{
											OFFSET -0.48353 -0.00000 0.00000
										}
									}
								}
								JOINT RThumb
								{
									OFFSET 0 0 0
									CHANNELS 3 Zrotation Yrotation Xrotation
									End Site
									{
										OFFSET -0.49091 -0.00000 0.49091
									}
								}
							}
						}
					}
				}
			}
		}
	}
}
MOTION
Frames: 14
Frame Time: 0.04
0.00 0.00 0.00 0 0 0 0 0 0 -21 0 0 0 0 0 0 0 0 0 0 0 0 0 0 21 0 0 0 0 0 0 0 0 0 0 0 0 0 0 0 0 0 0 0 0 0 0 -16 0 0 21 0 0 11 0 0 0 -8 0 0 0 0 0 0 0 0 0 0 0 0 0 0 0 0 0 0 0 0 8 0 0 0 0 0 0 0 0 0 0 0 0 0 0 0 0 0
0.00 0.00 0.00 -1.2204 -10.3832 9.5167 0.0000 0.0000 0.0000 -18.1992 -7.9765 -15.8928 1.0439 6.4975 18.2349 0.0328 -7.4429 -5.9207 0.0006 0.1613 0.4431 0.0000 0.0000 0.0000 15.2816 -9.9937 -10.8645 -1.1945 -6.9350 19.5230 0.4868 -22.1341 -27.6939 -0.0853 -1.8834 5.1837 -4.3875 1.7140 0.8236 0.7540 2.2088 -2.1990 3.1582 1.2108 -2.9250 -22.1815 -18.6699 2.9017 21.4512 -28.0800 9.0745 7.1763 -13.8488 8.6353 0.0000 0.0000 0.0000 -84.9551 3.4536 45.4313 101.4379 -59.4998 -69.8889 -0.0000 0.0000 -60.3301 6.3870 16.9995 1.8744 -7.1250 0.0000 -0.0000 -20.1179 46.0514 -0.5439 0.0000 0.0000 0.0000 89.7702 26.2947 69.5684 -57.6311 55.6449 -32.3776 0.0000 -0.0000 -54.3776 -17.0165 -9.5226 2.8985 7.1250 -0.0000 -0.0000 8.6916 -39.7840 1.1273
0.00 0.00 0.00 -0.6149 18.6103 15.7023 0.0000 0.0000 0.0000 -16.7416 -19.3259 -24.5979 1.0476 6.5088 18.2679 -2.1096 -24.9538 5.6177 0.6462 5.1423 14.3148 0.0000 0.0000 0.0000 19.6096 -20.7134 -22.7044 -2.7470 -10.2738 29.8680 0.6278 -23.5001 -28.8277 -0.0754 1.7718 -4.8753 -0.6273 6.7862 6.1660 1.6829 9.0455 0.5334 1.2543 4.5163 -3.2436 -19.0217 -18.9635 1.2606 25.2791 -25.8620 -5.2588 8.5690 -12.9862 4.2150 0.0000 -0.0000 0.0000 -82.7680 1.0752 30.7365 103.2722 -59.3238 -71.4679 -0.0000 0.0000 -55.1443 28.8467 28.1272 14.5566 -7.1250 0.0000 -0.0000 -1.9715 61.3643 -0.7857 0.0000 -0.0000 0.0000 55.4939 29.6756 52.7458 -74.3319 59.0518 -46.4742 0.0000 -0.0000 -58.1064 6.1917 -13.8775 -1.4905 7.1250 -0.0000 -0.0000 29.5561 -41.8036 2.5849
0.00 0.00 0.00 -0.8379 20.3333 15.5240 0.0000 0.0000 0.0000 -16.6494 -20.0368 -24.7140 1.0988 6.6608 18.7143 -2.3150 -25.9469 6.5824 0.8097 5.7424 16.0389 0.0000 0.0000 0.0000 19.6809 -21.1836 -22.3403 -2.7759 -10.3231 30.0294 0.7175 -23.5033 -28.1399 -0.1190 2.2237 -6.1242 -0.1817 6.3482 7.1573 1.9845 8.5139 0.4089 1.2467 4.2437 -3.8885 -18.8471 -18.8459 0.6315 25.2275 -25.4530 -6.1564 8.5856 -12.7729 3.9380 -0.0000 -0.0000 0.0000 -82.2625 1.4289 30.0318 104.7134 -59.1660 -72.7065 -0.0000 0.0000 -54.8652 28.1295 27.6556 13.9361 -7.1250 0.0000 -0.0000 -2.6248 60.6799 -1.0036 -0.0000 -0.0000 0.0000 39.4176 35.5054 25.2258 -68.0823 58.1047 -41.1395 0.0000 -0.0000 -62.9794 -6.4622 -14.5845 1.6337 7.1250 -0.0000 -0.0000 19.1689 -43.7801 0.6005
0.00 0.00 0.00 -0.7179 21.6125 15.8774 0.0000 0.0000 0.0000 -16.8684 -20.2629 -25.3245 1.1087 6.6897 18.7993 -2.5437 -26.9746 7.9350 0.9917 6.3380 17.7683 0.0000 0.0000 0.0000 19.7085 -21.3737 -22.7218 -2.8245 -10.4054 30.2997 0.7319 -23.6388 -28.2587 -0.1145 2.1816 -6.0077 0.4204 5.7822 7.7945 1.8842 7.8282 -0.1185 0.7934 3.8849 -4.6778 -18.2981 -18.5764 0.3430 24.5907 -25.0054 -6.0931 8.4036 -12.5355 3.7366 0.0000 0.0000 0.0000 -81.1175 1.8462 30.3071 104.9104 -59.1431 -72.8757 -0.0000 0.0000 -54.7465 27.3634 27.4293 13.4094 -7.1250 0.0000 -0.0000 -3.4254 60.2488 -1.2750 0.0000 0.0000 0.0000 27.3365 43.2505 -0.2638 -44.2092 50.3751 -21.6279 0.0000 -0.0000 -56.8960 -19.6906 -13.6152 4.8153 7.1250 -0.0000 -0.0000 7.1057 -44.2898 0.1252
0.00 0.00 0.00 -0.6681 22.4405 15.8531 0.0000 0.0000 0.0000 -17.2751 -19.7383 -25.3880 1.1158 6.7105 18.8606 -2.8036 -28.1204 9.1480 1.2214 7.0099 19.7448 0.0000 0.0000 0.0000 19.7171 -21.6998 -22.0748 -2.6961 -10.1860 29.5811 0.7637 -24.0090 -28.6461 -0.0957 1.9947 -5.4910 0.9723 5.4911 8.1002 1.7051 7.5015 -0.5567 0.2927 3.7007 -5.2060 -17.7128 -18.5555 -0.0518 23.8812 -24.9961 -5.3358 8.0711 -12.4837 3.8299 -0.0000 -0.0000 0.0000 -79.9875 1.4997 31.4362 103.5173 -59.2982 -71.6787 -0.0000 0.0000 -54.7024 26.5996 27.5407 13.0364 -7.1250 0.0000 -0.0000 -4.3598 60.1777 -1.6161 -0.0000 -0.0000 0.0000 13.1820 50.7013 -32.8390 -23.4661 34.5946 -7.4012 0.0000 -0.0000 -33.9646 -22.7686 -13.2525 5.4959 7.1250 -0.0000 -0.0000 4.2296 -44.2666 0.0767
0.00 0.00 0.00 -0.9088 -7.0479 11.6625 0.0000 0.0000 0.0000 -19.0315 -8.7300 -20.9075 1.0654 6.5620 18.4241 -0.2611 -11.1212 -2.8805 0.0411 1.3077 3.5959 0.0000 0.0000 0.0000 14.1325 -7.6415 -11.0085 -0.8448 -5.8626 16.3863 0.7363 -22.6770 -26.5544 -0.1282 -2.3083 6.3584 -0.8192 4.4015 2.9004 0.9882 5.8783 -1.9507 1.1025 2.9620 -3.8175 -15.6849 -11.7950 -12.1955 9.9893 -14.8204 13.6931 4.0095 -7.1098 8.1700 0.0000 -0.0000 0.0000 -84.3332 1.0506 53.3977 87.8166 -59.9820 -58.1092 -0.0000 0.0000 -44.0360 31.3388 25.0054 14.4346 -7.1250 0.0000 -0.0000 2.0412 58.6069 0.6793 0.0000 -0.0000 0.0000 77.4096 24.9079 40.8218 -75.7494 59.2186 -47.6910 0.0000 -0.0000 -3.4750 -31.4849 8.8756 -5.3980 7.1250 -0.0000 -0.0000 -3.2614 -19.6115 -1.9808
0.00 0.00 0.00 -0.9702 -9.0177 11.2490 0.0000 0.0000 0.0000 -18.4305 -8.7649 -20.7018 1.0816 6.6101 18.5653 -0.1596 -9.2936 -3.0464 0.0162 0.8225 2.2605 0.0000 0.0000 0.0000 14.2423 -7.2588 -12.4570 -1.0504 -6.5172 18.2927 0.5967 -21.3156 -25.4070 -0.0625 -1.6131 4.4376 -1.1315 3.2631 3.5387 1.0830 4.3420 -1.9686 1.4352 2.2070 -4.1812 -14.0866 -9.6908 -13.6149 9.1730 -11.8748 13.7338 3.8938 -5.6613 7.8781 0.0000 0.0000 0.0000 -86.0010 -13.9804 59.7155 86.0878 -59.9421 -56.6126 -0.0000 0.0000 -41.5165 28.7523 24.6220 12.8761 -7.1250 0.0000 -0.0000 -0.8077 57.5764 -0.2487 0.0000 0.0000 0.0000 75.3507 29.0522 43.0544 -94.5797 59.9206 -63.9651 0.0000 0.0000 12.1496 -40.7052 16.8904 -14.0336 7.1250 -0.0000 -0.0000 -8.2825 -8.3367 -7.0704
0.00 0.00 0.00 -2.0274 -5.1907 10.7834 0.0000 0.0000 0.0000 -14.6594 -13.9472 -26.8329 2.3505 9.5608 27.5659 -0.1346 -10.0103 -4.4738 0.0003 0.1113 0.3058 0.0000 0.0000 0.0000 16.8955 -10.7311 -21.9658 -2.9352 -10.5893 30.9071 -0.2626 -17.9672 -27.5669 -0.0037 -0.3923 1.0778 -2.1977 1.7263 10.3712 0.2150 2.0393 -0.2972 1.1446 1.0727 -6.2214 -11.9108 -6.5913 -17.9873 8.0862 -7.4362 15.5128 3.7094 -3.4316 8.5513 0.0000 0.0000 0.0000 -95.5839 -35.7705 54.0186 67.1707 -57.9361 -40.3662 -0.0000 0.0000 -49.6667 23.4219 25.6484 10.6200 -7.1250 0.0000 -0.0000 -7.0758 57.4617 -2.1666 0.0000 0.0000 0.0000 76.4043 44.5155 52.4845 -107.1426 58.8600 -74.7891 0.0000 0.0000 15.0534 -40.0116 17.0379 -13.8182 7.1250 -0.0000 -0.0000 -7.8188 -8.3376 -6.6664
0.00 0.00 0.00 -4.1898 -1.7736 12.1390 0.0000 0.0000 0.0000 -9.1243 -16.5265 -33.0588 3.2733 11.1248 32.7021 -0.2642 -12.5213 -4.6414 0.0025 -0.3219 -0.8844 0.0000 0.0000 0.0000 22.0256 -15.0187 -29.6987 -4.1220 -12.3210 36.8773 -0.8667 -14.6539 -28.2860 -0.0003 -0.1053 0.2893 -3.3497 1.9130 14.2918 -2.1972 1.8466 1.5935 -0.7931 0.9554 -6.3594 -9.7391 -4.2280 -19.0992 8.5491 -4.7836 16.0311 3.8833 -1.9802 8.5876 0.0000 -0.0000 0.0000 -103.2358 -43.0118 47.6190 77.4918 -59.4005 -49.1894 -0.0000 0.0000 -56.1495 14.3133 23.3124 5.7657 -7.1250 0.0000 -0.0000 -15.4036 53.2945 -3.2024 0.0000 -0.0000 0.0000 95.9350 54.9735 75.0232 -92.8443 59.9694 -62.4629 0.0000 0.0000 21.4539 -27.1405 10.0029 -5.0882 7.1250 -0.0000 -0.0000 -0.0937 -18.7688 -0.0586
0.00 0.00 0.00 -5.6706 -1.0920 12.4880 0.0000 0.0000 0.0000 -6.3229 -16.5026 -33.3260 3.2616 11.1070 32.6414 -0.2320 -12.3173 -5.0115 0.0199 -0.9102 -2.5017 0.0000 0.0000 0.0000 25.2485 -16.8250 -30.1935 -3.8969 -12.0220 35.8098 -0.9729 -13.3808 -27.8052 -0.0011 -0.2119 0.5821 -3.8765 3.8559 14.6864 -4.1271 4.1944 2.2712 -3.0020 2.0847 -5.7705 -10.0480 -4.1686 -18.8596 9.9557 -5.0088 17.2577 4.4220 -1.9640 9.0348 -0.0000 0.0000 0.0000 -101.3768 -37.3115 45.2069 98.4309 -59.7297 -67.2948 -0.0000 0.0000 -66.6046 7.4697 23.4259 2.9839 -7.1250 0.0000 -0.0000 -22.0834 52.2095 -4.0826 -0.0000 0.0000 0.0000 103.9811 49.8083 85.8128 -83.3756 59.8335 -54.2663 0.0000 0.0000 22.8354 -16.3858 -4.4851 1.3172 7.1250 -0.0000 -0.0000 8.4698 -34.5562 2.1913
0.00 0.00 0.00 -7.5280 5.8747 13.0680 0.0000 0.0000 0.0000 -2.2389 -20.0869 -34.2694 3.2387 11.0719 32.5226 -0.3146 -13.6506 -5.0638 0.0455 -1.3769 -3.7864 0.0000 0.0000 0.0000 30.2063 -19.8333 -30.0954 -3.3884 -11.2987 33.2939 -0.8642 -14.9986 -28.6177 -0.0000 0.0234 -0.0642 -4.5040 5.7011 14.1721 -4.2599 6.6383 3.7188 -3.1125 3.2905 -3.9530 -11.3761 -5.2576 -19.0330 10.7301 -6.2716 17.1051 4.7346 -2.5551 9.2300 -0.0000 0.0000 0.0000 -95.0511 -23.2113 40.0397 116.2802 -57.2223 -82.5471 -0.0000 0.0000 -75.5644 -2.9138 21.8786 -1.0866 -7.1250 0.0000 -0.0000 -30.7215 49.1870 -3.4705 -0.0000 0.0000 0.0000 105.6081 38.0019 93.5479 -84.4906 59.8850 -55.2305 0.0000 0.0000 25.1292 -20.5688 -4.0759 1.5278 7.1250 -0.0000 -0.0000 4.9992 -34.2993 1.3169
0.00 0.00 0.00 -3.9625 24.3551 13.7296 0.0000 0.0000 0.0000 -4.6279 -27.6197 -33.7317 2.3832 9.6225 27.7626 -2.0041 -24.7393 3.4598 0.2785 3.3944 9.3787 0.0000 0.0000 0.0000 31.6690 -23.5456 -30.7983 -3.2122 -11.0310 32.3844 0.3047 -27.1255 -36.4299 -0.1492 -2.4889 6.8587 -3.0988 8.0075 14.1600 -4.6849 9.9262 3.9033 -4.8570 4.9466 -3.3687 -4.1410 -0.8196 -18.4796 -0.1824 0.2483 22.0737 0.6669 -0.2230 10.0992 0.0000 -0.0000 0.0000 -87.5753 -13.0688 34.4102 108.3790 -58.6844 -75.8464 -0.0000 0.0000 -69.0872 -5.1996 16.9031 -1.5156 -7.1250 0.0000 -0.0000 -30.0924 44.5620 0.3594 0.0000 -0.0000 0.0000 105.5375 33.9104 92.3795 -71.0307 58.5957 -43.6496 0.0000 -0.0000 -11.4497 -34.5829 1.7385 -1.1982 7.1250 -0.0000 -0.0000 -6.1710 -27.8510 -2.5871
0.00 0.00 0.00 -3.7410 17.7487 13.5269 0.0000 0.0000 0.0000 -6.9576 -23.2937 -30.6040 1.8626 8.5739 24.4713 -1.5945 -22.1924 3.2940 0.2571 3.2626 9.0106 0.0000 0.0000 0.0000 28.4753 -20.0095 -26.5193 -2.5562 -9.9394 28.7807 0.6460 -26.6145 -33.7105 -0.1505 -2.4997 6.8888 -2.5255 6.9332 11.5061 -4.1151 8.7394 3.3122 -4.0562 4.3596 -2.6382 -4.4410 0.3727 -16.4734 -2.8044 2.7216 24.5134 0.1317 0.5426 10.6103 0.0000 -0.0000 0.0000 -86.1548 -18.1833 38.1935 106.1364 -58.9929 -73.9273 -0.0000 0.0000 -57.5979 -4.9926 17.2655 -1.4852 -7.1250 0.0000 -0.0000 -30.0915 44.9029 0.0796 0.0000 -0.0000 0.0000 102.1705 36.9440 74.5304 -70.7598 58.5540 -43.4184 0.0000 -0.0000 -54.2107 -17.5055 -9.3872 2.9449 7.1250 -0.0000 -0.0000 8.2465 -39.6837 1.0891
